<svg xmlns="http://www.w3.org/2000/svg" xmlns:xlink="http://www.w3.org/1999/xlink" x="0px" y="0px" viewBox="0 0 206.617 123.94" enable-background="new 0 0 206.617 123.94">
<g>
	<g>
		<path fill="#EAE5E5" d="M103.309,121.526c16.059,0,42.529,2.397,42.529,2.397c2.19,0.198,4.197-1.427,4.459-3.611l13.945-116.34
			C164.504,1.787,162.918,0,160.718,0H45.899c-2.2,0-3.768,1.785-3.483,3.966l15.14,116.204c0.284,2.182,2.31,3.809,4.501,3.615
			C62.057,123.786,87.707,121.526,103.309,121.526z"/>
	</g>
	<path fill="#444040" d="M130.279,21.738c-1.408-1.656-2.939-3.322-4.587-4.97c-0.065-0.065-0.131-0.13-0.198-0.194
		c-4.219-4.193-8.562-7.65-12.533-10.131c-0.531,0.455-1.057,0.93-1.568,1.441c-1.396,1.395-2.576,2.873-3.529,4.359
		c1.207,0.995,2.514,2.166,3.858,3.465c1.216-1.174,3.239-1.077,4.548,0.232c0.523,0.521,0.846,1.158,0.979,1.81
		c0.442,0.909-0.062,2.482-1.247,3.964c-0.212,0.265-0.438,0.527-0.693,0.783c-0.26,0.259-0.527,0.494-0.799,0.708l-2.26,2.261
		c-0.092,0.072-0.18,0.135-0.281,0.226c-1.914,1.694-3.213,2.442-3.871,2.757l-0.305-0.305c-1.141,1.045-2.309,2.153-3.486,3.332
		c-0.246,0.246-0.481,0.49-0.723,0.734c-0.232-0.236-0.458-0.471-0.695-0.707c-1.18-1.179-2.345-2.29-3.483-3.336l-0.558,0.558
		l0.889-3.872c0,0,0.506-1.238-1.758-2.663c-2.263-1.427-19.13-12.134-19.13-12.134s-0.362-0.086-0.795-0.07
		c-0.496-0.006-0.827,0.144-1.039,0.368c-0.228,0.212-0.374,0.542-0.37,1.043c-0.016,0.429,0.072,0.794,0.072,0.794
		S87.422,29.058,88.85,31.32c1.427,2.263,2.661,1.755,2.661,1.755l3.874-0.886l-0.558,0.556c1.045,1.139,2.157,2.308,3.335,3.485
		c0.301,0.3,0.598,0.588,0.896,0.88c-1.559,1.808-2.891,3.503-3.937,4.995l3.447,3.449c1.544-1.081,3.307-2.475,5.185-4.102
		c1.816,1.575,3.518,2.928,5.013,3.987l3.33-3.333c-1.022-1.441-2.319-3.08-3.825-4.826c0.309-0.302,0.617-0.602,0.928-0.912
		c1.18-1.179,2.289-2.346,3.332-3.486L112.15,32.5c0.314-0.656,1.062-1.956,2.755-3.869l2.235-2.234l2.355-2.355
		c2.293-1.021,5.528-0.383,8.391,1.656c0.627,0.443,1.236,0.947,1.813,1.523c1.619,1.619,2.723,3.486,3.27,5.297
		c2.121,1.621,4.305,2.423,5.811,2.148C137.121,30.848,134.185,26.33,130.279,21.738z"/>
	<g>
		<path fill="#444040" d="M77.575,106.682v-5.641l-2.196,4.199h-0.9l-2.196-4.199v5.641h-1.656v-8.52h1.776l2.52,4.848l2.544-4.848
			h1.764v8.52H77.575z"/>
		<path fill="#444040" d="M81.343,106.682l3.36-8.52h1.344l3.348,8.52h-1.752l-0.78-2.125h-2.988l-0.78,2.125H81.343z M85.375,99.95
			l-1.224,3.443h2.412L85.375,99.95z"/>
		<path fill="#444040" d="M96.499,100.393c-0.056-0.055-0.158-0.131-0.306-0.227c-0.148-0.098-0.328-0.191-0.54-0.283
			s-0.442-0.17-0.69-0.234c-0.248-0.063-0.5-0.096-0.756-0.096c-0.456,0-0.796,0.084-1.02,0.252
			c-0.224,0.168-0.336,0.404-0.336,0.709c0,0.176,0.042,0.322,0.126,0.438s0.206,0.219,0.366,0.307s0.362,0.168,0.606,0.24
			c0.244,0.07,0.526,0.146,0.846,0.227c0.416,0.113,0.794,0.232,1.134,0.361c0.34,0.127,0.628,0.287,0.864,0.479
			c0.236,0.193,0.418,0.422,0.546,0.691c0.128,0.268,0.192,0.598,0.192,0.99c0,0.455-0.086,0.846-0.258,1.17
			c-0.172,0.322-0.402,0.586-0.69,0.785s-0.624,0.346-1.008,0.438c-0.384,0.092-0.784,0.139-1.2,0.139
			c-0.64,0-1.272-0.096-1.896-0.289c-0.624-0.191-1.184-0.463-1.68-0.814l0.732-1.428c0.072,0.07,0.202,0.166,0.39,0.281
			s0.41,0.232,0.666,0.348c0.256,0.117,0.54,0.215,0.852,0.295s0.632,0.119,0.96,0.119c0.912,0,1.368-0.291,1.368-0.875
			c0-0.193-0.052-0.354-0.156-0.48c-0.104-0.129-0.252-0.24-0.444-0.336s-0.424-0.184-0.696-0.264
			c-0.272-0.08-0.576-0.164-0.912-0.252c-0.408-0.113-0.762-0.234-1.062-0.367c-0.3-0.131-0.55-0.285-0.75-0.461
			c-0.2-0.176-0.35-0.385-0.45-0.625s-0.15-0.523-0.15-0.852c0-0.432,0.08-0.816,0.24-1.152c0.16-0.336,0.382-0.615,0.666-0.84
			c0.284-0.225,0.614-0.395,0.99-0.51s0.78-0.174,1.212-0.174c0.6,0,1.152,0.094,1.656,0.281c0.504,0.188,0.944,0.41,1.32,0.666
			L96.499,100.393z"/>
		<path fill="#444040" d="M103.531,106.741c-0.6,0-1.148-0.121-1.644-0.365c-0.496-0.244-0.922-0.568-1.278-0.973
			c-0.356-0.402-0.63-0.865-0.822-1.385s-0.288-1.053-0.288-1.596c0-0.568,0.102-1.113,0.306-1.633
			c0.204-0.52,0.488-0.98,0.852-1.381c0.364-0.398,0.793-0.717,1.29-0.953c0.496-0.236,1.036-0.354,1.62-0.354
			c0.6,0,1.147,0.125,1.644,0.377s0.92,0.582,1.272,0.99s0.624,0.873,0.815,1.393c0.193,0.52,0.289,1.049,0.289,1.584
			c0,0.568-0.103,1.109-0.307,1.625c-0.203,0.518-0.486,0.973-0.846,1.369s-0.788,0.711-1.284,0.947
			S104.114,106.741,103.531,106.741z M101.167,102.422c0,0.367,0.054,0.723,0.162,1.066c0.108,0.346,0.264,0.648,0.468,0.912
			c0.204,0.266,0.454,0.477,0.75,0.637s0.632,0.24,1.008,0.24c0.384,0,0.722-0.082,1.014-0.246s0.538-0.383,0.738-0.654
			s0.353-0.578,0.456-0.918s0.156-0.686,0.156-1.037c0-0.369-0.057-0.725-0.168-1.068c-0.113-0.344-0.271-0.648-0.475-0.912
			c-0.203-0.264-0.451-0.475-0.744-0.631c-0.292-0.156-0.622-0.232-0.99-0.232c-0.384,0-0.722,0.082-1.014,0.244
			c-0.292,0.164-0.54,0.381-0.744,0.648c-0.204,0.27-0.358,0.572-0.462,0.912C101.218,101.723,101.167,102.069,101.167,102.422z"/>
		<path fill="#444040" d="M111.726,101.221v5.461h-1.655v-8.52h1.284l4.439,5.592v-5.58h1.656v8.508h-1.344L111.726,101.221z"/>
		<path fill="#444040" d="M120.427,106.682v-8.52h3.768c0.392,0,0.754,0.082,1.086,0.244c0.332,0.164,0.617,0.381,0.857,0.648
			c0.24,0.27,0.428,0.572,0.564,0.912c0.136,0.34,0.204,0.682,0.204,1.025c0,0.553-0.138,1.055-0.414,1.508
			c-0.276,0.451-0.65,0.777-1.122,0.977l2.004,3.205h-1.872l-1.788-2.857h-1.632v2.857H120.427z M122.082,102.374h2.076
			c0.151,0,0.294-0.035,0.426-0.107s0.246-0.17,0.343-0.295c0.096-0.123,0.172-0.27,0.228-0.438s0.084-0.348,0.084-0.541
			c0-0.199-0.032-0.383-0.097-0.551c-0.063-0.168-0.149-0.314-0.258-0.438c-0.107-0.125-0.232-0.221-0.371-0.289
			c-0.141-0.068-0.283-0.102-0.427-0.102h-2.004V102.374z"/>
		<path fill="#444040" d="M130.158,98.163l2.101,4.104l2.135-4.104h1.789l-3.096,5.543v2.977h-1.645v-3l-3.084-5.52H130.158z"/>
	</g>
	<g>
		<path fill="#16436B" d="M204.455,72.938h-23.731c0.426-2.278,0.881-4.453,1.4-6.397c-60.959-19.435-96.194-19.435-157.147,0
			c0.516,1.944,0.967,4.119,1.393,6.397H2.162l11.278,13.51L2.162,99.717h41.229l0.293-7.377
			c44.793-12.857,74.656-12.889,119.36-0.111l0.182,4.539v2.949h41.229l-11.276-13.27L204.455,72.938z"/>
		<path fill="#FFFFFF" d="M206.617,100.717h-44.392v-3.949l-0.151-3.775c-22.706-6.444-40.781-9.321-58.521-9.321
			c-17.832,0-36.024,2.911-58.898,9.432l-0.303,7.614H0l12.133-14.275L0.025,71.938h25.136c-0.401-2.059-0.772-3.713-1.151-5.141
			l-0.244-0.92l0.907-0.289c32.147-10.25,55.736-14.623,78.875-14.623c23.14,0,46.729,4.373,78.88,14.623l0.908,0.29l-0.246,0.921
			c-0.386,1.444-0.759,3.099-1.157,5.139h24.659l-12.105,14.504L206.617,100.717z M164.226,98.717h38.067l-10.422-12.264
			l10.446-12.516H179.52l0.221-1.184c0.412-2.201,0.792-3.993,1.18-5.547c-31.484-9.979-54.666-14.242-77.372-14.242
			c-22.706,0-45.888,4.263-77.369,14.243c0.38,1.54,0.759,3.331,1.173,5.547l0.221,1.184H4.299l10.449,12.516L4.325,98.717H42.43
			l0.283-7.139l0.695-0.199c23.389-6.714,41.938-9.708,60.145-9.708c18.114,0,36.547,2.959,59.766,9.596l0.696,0.199l0.21,5.262
			L164.226,98.717z"/>
	</g>
	<g>
		<path fill="#FFFFFF" d="M52.517,69c0.161-0.304,0.292-0.571,0.393-0.802c0.101-0.23,0.174-0.436,0.22-0.614
			c0.046-0.18,0.073-0.333,0.082-0.462c0.009-0.128,0.001-0.242-0.022-0.342c-0.04-0.173-0.151-0.271-0.332-0.297
			c-0.181-0.024-0.441,0.003-0.781,0.082l-0.195-0.839l4.524-1.053l0.195,0.839c-0.233,0.055-0.447,0.151-0.643,0.292
			c-0.195,0.14-0.382,0.316-0.561,0.53c-0.179,0.214-0.355,0.465-0.53,0.755s-0.36,0.615-0.557,0.978l-2.19,4.025l5.714,5.009
			c0.518,0.447,0.991,0.768,1.418,0.959c0.427,0.192,0.831,0.244,1.21,0.155l0.04-0.009l0.2,0.858l-0.22,0.052
			c-0.686,0.159-1.254,0.264-1.706,0.313c-0.452,0.049-0.844,0.038-1.176-0.031c-0.332-0.07-0.637-0.197-0.915-0.382
			c-0.278-0.185-0.586-0.431-0.924-0.738l-4.702-4.232l-1.41,1.813l0.734,3.155c0.075,0.32,0.179,0.565,0.314,0.738
			c0.135,0.172,0.289,0.292,0.463,0.36s0.368,0.096,0.582,0.08c0.214-0.015,0.434-0.048,0.661-0.101l0.27-0.063l0.2,0.858
			l-5.953,1.385l-0.2-0.858l0.26-0.061c0.226-0.053,0.438-0.117,0.634-0.195c0.196-0.077,0.36-0.18,0.491-0.309
			s0.221-0.295,0.268-0.499s0.036-0.456-0.034-0.756l-2.356-10.127c-0.07-0.3-0.171-0.53-0.303-0.692
			c-0.133-0.162-0.287-0.275-0.463-0.34c-0.177-0.064-0.37-0.088-0.58-0.07c-0.21,0.018-0.429,0.053-0.655,0.104l-0.26,0.061
			l-0.2-0.858l5.952-1.385l0.2,0.858l-0.27,0.063c-0.226,0.053-0.439,0.12-0.637,0.201c-0.199,0.081-0.361,0.191-0.487,0.329
			c-0.126,0.139-0.211,0.314-0.256,0.528c-0.045,0.214-0.03,0.48,0.044,0.8l1.343,5.772L52.517,69z"/>
		<path fill="#FFFFFF" d="M65.943,77.256l4.005-0.605c0.331-0.051,0.606-0.139,0.826-0.266c0.219-0.126,0.395-0.279,0.527-0.458
			s0.226-0.378,0.283-0.598c0.056-0.22,0.084-0.446,0.083-0.682l0.007-0.914l1.084-0.164l0.408,3.651l-11.132,1.685l-0.132-0.871
			l0.264-0.04c0.23-0.035,0.445-0.083,0.647-0.145s0.373-0.151,0.514-0.27s0.243-0.277,0.306-0.478
			c0.063-0.199,0.072-0.451,0.026-0.756l-1.544-10.199c-0.049-0.324-0.132-0.577-0.25-0.761c-0.118-0.183-0.262-0.314-0.433-0.396
			s-0.363-0.123-0.574-0.126c-0.211-0.002-0.435,0.015-0.671,0.05l-0.264,0.04l-0.132-0.872L70.253,62.5l0.65,3.614l-1.075,0.162
			l-0.236-0.877c-0.062-0.226-0.147-0.436-0.256-0.63c-0.109-0.194-0.248-0.358-0.417-0.492c-0.169-0.133-0.37-0.229-0.604-0.287
			c-0.233-0.058-0.505-0.063-0.816-0.016l-3.488,0.527l0.836,5.525l5.008-0.758l0.154,1.014l-5.008,0.758L65.943,77.256z"/>
		<path fill="#FFFFFF" d="M77.917,76.729l-0.079-0.878l0.48-0.043c0.231-0.021,0.45-0.056,0.655-0.105
			c0.205-0.049,0.381-0.128,0.529-0.237s0.26-0.262,0.335-0.457c0.075-0.196,0.099-0.447,0.072-0.753l-0.354-3.953l-4.472-6.374
			c-0.133-0.187-0.257-0.346-0.372-0.476c-0.114-0.131-0.232-0.235-0.352-0.313c-0.121-0.078-0.25-0.132-0.39-0.161
			c-0.14-0.028-0.298-0.035-0.476-0.02l-0.266,0.024l-0.078-0.879l5.75-0.514l0.078,0.878l-0.776,0.069
			c-0.191,0.018-0.344,0.048-0.46,0.093c-0.116,0.045-0.206,0.101-0.268,0.168s-0.102,0.144-0.119,0.227
			c-0.017,0.084-0.021,0.171-0.013,0.259c0.018,0.198,0.078,0.392,0.181,0.581c0.103,0.19,0.202,0.356,0.297,0.499l1.792,2.66
			c0.283,0.407,0.529,0.813,0.737,1.216c0.208,0.403,0.384,0.764,0.529,1.08c0.048-0.155,0.109-0.329,0.185-0.521
			c0.075-0.191,0.16-0.396,0.254-0.614s0.192-0.442,0.295-0.675c0.103-0.232,0.206-0.463,0.309-0.692l1.123-2.52
			c0.115-0.25,0.192-0.485,0.23-0.705s0.05-0.414,0.035-0.585c-0.027-0.307-0.157-0.526-0.389-0.66
			c-0.231-0.134-0.548-0.183-0.95-0.146l-0.613,0.055l-0.079-0.878l5.106-0.457l0.079,0.878l-0.245,0.022
			c-0.15,0.014-0.289,0.052-0.417,0.114c-0.128,0.063-0.255,0.164-0.379,0.302c-0.125,0.139-0.251,0.317-0.379,0.538
			s-0.266,0.496-0.415,0.825l-2.959,6.514l0.345,3.851c0.029,0.326,0.097,0.585,0.203,0.774c0.106,0.189,0.242,0.33,0.408,0.421
			c0.166,0.092,0.354,0.146,0.565,0.161s0.432,0.013,0.664-0.008l0.49-0.044l0.079,0.878L77.917,76.729z"/>
		<path fill="#FFFFFF" d="M93.295,75.867c-0.683,0.025-1.289-0.024-1.816-0.148s-0.973-0.308-1.334-0.551s-0.638-0.544-0.829-0.902
			c-0.191-0.359-0.295-0.757-0.311-1.194c-0.016-0.424,0.103-0.771,0.356-1.039c0.253-0.27,0.623-0.413,1.107-0.432
			c0.037,0.437,0.119,0.854,0.247,1.253c0.128,0.399,0.31,0.748,0.547,1.047s0.533,0.534,0.888,0.706
			c0.355,0.172,0.779,0.248,1.271,0.229c0.943-0.034,1.67-0.289,2.183-0.763c0.512-0.474,0.753-1.138,0.721-1.992
			c-0.014-0.382-0.082-0.719-0.202-1.008c-0.12-0.29-0.311-0.555-0.573-0.795c-0.262-0.24-0.604-0.467-1.025-0.68
			c-0.422-0.214-0.945-0.436-1.569-0.666c-0.659-0.242-1.236-0.506-1.732-0.792c-0.497-0.286-0.912-0.609-1.247-0.97
			s-0.589-0.767-0.763-1.219c-0.174-0.451-0.272-0.964-0.293-1.538c-0.022-0.602,0.072-1.142,0.284-1.621
			c0.211-0.48,0.516-0.89,0.914-1.229s0.874-0.605,1.428-0.797c0.554-0.191,1.162-0.3,1.824-0.324
			c0.628-0.023,1.188,0.021,1.678,0.133c0.49,0.111,0.906,0.271,1.249,0.477s0.606,0.448,0.792,0.725
			c0.185,0.277,0.283,0.569,0.294,0.877c0.017,0.451-0.119,0.796-0.408,1.036c-0.289,0.24-0.686,0.369-1.191,0.388
			c-0.012-0.328-0.063-0.649-0.154-0.964s-0.232-0.593-0.426-0.836c-0.193-0.242-0.444-0.437-0.75-0.582
			c-0.307-0.146-0.682-0.211-1.125-0.194c-0.403,0.015-0.761,0.084-1.075,0.209c-0.313,0.124-0.576,0.295-0.787,0.512
			c-0.211,0.216-0.369,0.474-0.474,0.771c-0.105,0.298-0.151,0.628-0.138,0.99c0.015,0.416,0.083,0.781,0.205,1.095
			c0.121,0.314,0.314,0.594,0.58,0.841s0.611,0.477,1.037,0.69c0.425,0.213,0.946,0.432,1.563,0.655
			c0.624,0.229,1.182,0.476,1.674,0.738c0.492,0.262,0.912,0.56,1.259,0.892c0.348,0.333,0.618,0.709,0.812,1.13
			c0.193,0.42,0.3,0.9,0.32,1.439c0.024,0.663-0.075,1.26-0.298,1.792c-0.223,0.531-0.553,0.986-0.991,1.365
			s-0.97,0.674-1.599,0.885C94.788,75.718,94.081,75.838,93.295,75.867z"/>
		<path fill="#FFFFFF" d="M107.485,73.11c-0.004,0.328,0.039,0.592,0.129,0.791s0.211,0.353,0.363,0.46
			c0.152,0.108,0.334,0.181,0.546,0.217c0.212,0.037,0.433,0.057,0.665,0.06l0.482,0.006l-0.01,0.882l-6.532-0.078l0.01-0.882
			l0.482,0.006c0.232,0.003,0.453-0.011,0.663-0.038c0.208-0.028,0.392-0.09,0.551-0.184c0.158-0.094,0.284-0.234,0.379-0.421
			c0.094-0.187,0.144-0.435,0.146-0.742l0.141-11.657l-2.01-0.024c-0.308-0.004-0.566,0.039-0.776,0.129
			c-0.209,0.09-0.382,0.213-0.517,0.368c-0.135,0.156-0.236,0.338-0.304,0.545c-0.067,0.208-0.116,0.428-0.146,0.66l-0.124,0.9
			l-1.087-0.013l0.146-3.669l11.823,0.142l0.058,3.672l-1.087-0.014l-0.092-0.903c-0.024-0.232-0.069-0.453-0.135-0.663
			c-0.066-0.209-0.164-0.393-0.291-0.552c-0.129-0.159-0.298-0.285-0.508-0.381c-0.211-0.095-0.475-0.144-0.789-0.147l-2.039-0.024
			L107.485,73.11z"/>
		<path fill="#FFFFFF" d="M128.137,69.051c-0.081,1.152-0.298,2.192-0.651,3.12s-0.833,1.709-1.44,2.345
			c-0.606,0.636-1.332,1.109-2.177,1.419c-0.844,0.311-1.795,0.429-2.852,0.354c-1.111-0.078-2.066-0.331-2.865-0.757
			c-0.799-0.427-1.447-0.997-1.945-1.71c-0.498-0.714-0.85-1.556-1.056-2.526s-0.268-2.035-0.187-3.194
			c0.082-1.159,0.293-2.202,0.633-3.127c0.339-0.925,0.805-1.703,1.397-2.333c0.593-0.629,1.317-1.098,2.175-1.403
			c0.858-0.306,1.843-0.42,2.954-0.342c1.058,0.074,1.979,0.323,2.765,0.745c0.785,0.422,1.434,0.988,1.946,1.699
			c0.512,0.712,0.877,1.55,1.097,2.514C128.15,66.819,128.22,67.885,128.137,69.051z M117.284,68.285
			c-0.072,1.037-0.061,1.968,0.035,2.794c0.096,0.825,0.294,1.531,0.596,2.118c0.301,0.587,0.713,1.047,1.233,1.382
			c0.521,0.335,1.171,0.53,1.948,0.585s1.447-0.047,2.01-0.306c0.563-0.258,1.033-0.657,1.411-1.195
			c0.377-0.539,0.669-1.211,0.877-2.015c0.207-0.805,0.348-1.725,0.421-2.762c0.073-1.036,0.063-1.967-0.029-2.793
			c-0.093-0.825-0.288-1.529-0.586-2.112s-0.705-1.04-1.219-1.371c-0.516-0.331-1.161-0.523-1.938-0.578s-1.449,0.045-2.015,0.3
			c-0.566,0.255-1.042,0.649-1.426,1.185c-0.384,0.534-0.681,1.204-0.892,2.008C117.5,66.329,117.358,67.249,117.284,68.285z"/>
		<path fill="#FFFFFF" d="M141.435,78.406l-6.063-13.103l-1.39,9.61c-0.047,0.325-0.039,0.593,0.023,0.802
			c0.063,0.209,0.163,0.378,0.301,0.504c0.137,0.127,0.308,0.223,0.513,0.287c0.204,0.064,0.422,0.112,0.652,0.146l0.273,0.039
			l-0.126,0.873l-5.216-0.755l0.126-0.872l0.264,0.038c0.236,0.034,0.461,0.049,0.672,0.045s0.402-0.047,0.573-0.13
			c0.171-0.082,0.314-0.215,0.431-0.398s0.198-0.438,0.245-0.762l1.474-10.189c0.044-0.305,0.034-0.556-0.03-0.756
			c-0.064-0.199-0.168-0.36-0.309-0.484s-0.313-0.216-0.514-0.276c-0.202-0.061-0.419-0.107-0.648-0.141l-0.264-0.038l0.126-0.873
			l3.806,0.551l5.777,12.563l1.331-9.204c0.044-0.305,0.034-0.557-0.03-0.756s-0.167-0.36-0.309-0.484
			c-0.141-0.124-0.313-0.217-0.514-0.276c-0.202-0.061-0.418-0.107-0.648-0.141l-0.273-0.04l0.126-0.872l5.216,0.754l-0.126,0.873
			l-0.264-0.038c-0.237-0.034-0.461-0.05-0.672-0.046c-0.212,0.005-0.402,0.048-0.573,0.13s-0.314,0.215-0.431,0.398
			s-0.198,0.438-0.245,0.763l-1.804,12.473L141.435,78.406z"/>
		<path fill="#FFFFFF" d="M151.237,79.239l3.948,0.9c0.327,0.075,0.615,0.094,0.866,0.056c0.25-0.037,0.47-0.115,0.658-0.233
			c0.188-0.118,0.349-0.27,0.481-0.453s0.242-0.385,0.327-0.604l0.341-0.848l1.069,0.244l-0.956,3.547l-10.978-2.504l0.196-0.859
			l0.26,0.059c0.227,0.052,0.445,0.086,0.655,0.103s0.402-0.005,0.577-0.063c0.175-0.058,0.328-0.168,0.46-0.331
			s0.231-0.395,0.3-0.694l2.294-10.057c0.073-0.32,0.088-0.587,0.046-0.8c-0.043-0.213-0.129-0.389-0.259-0.527
			c-0.13-0.138-0.293-0.247-0.488-0.326c-0.195-0.08-0.41-0.146-0.644-0.199l-0.26-0.06l0.196-0.86l10.317,2.354l-0.717,3.602
			l-1.06-0.241l0.101-0.903c0.025-0.232,0.022-0.459-0.008-0.68s-0.1-0.424-0.208-0.61c-0.108-0.186-0.261-0.349-0.456-0.487
			c-0.196-0.14-0.448-0.244-0.755-0.314l-3.438-0.784l-1.243,5.448l4.939,1.127l-0.229,0.999l-4.938-1.126L151.237,79.239z"/>
	</g>
</g>
</svg>
